<?xml version="1.0" encoding="UTF-8" standalone="no"?>
<!DOCTYPE svg PUBLIC "-//W3C//DTD SVG 1.1//EN"
 "http://www.w3.org/Graphics/SVG/1.1/DTD/svg11.dtd">
<!-- Generated by graphviz version 2.42.3 (20191010.1750)
 -->
<!-- Title: finite_state_machine Pages: 1 -->
<svg width="408pt" height="154pt"
 viewBox="0.00 0.00 408.00 154.00" xmlns="http://www.w3.org/2000/svg" xmlns:xlink="http://www.w3.org/1999/xlink">
<g id="graph0" class="graph" transform="scale(1 1) rotate(0) translate(4 150)">
<title>finite_state_machine</title>
<polygon fill="white" stroke="transparent" points="-4,4 -4,-150 404,-150 404,4 -4,4"/>
<!-- 0 -->
<g id="node1" class="node">
<title>0</title>
<ellipse fill="none" stroke="black" cx="18" cy="-77" rx="18" ry="18"/>
<text text-anchor="middle" x="18" y="-73.3" font-family="Times,serif" font-size="14.00">0</text>
</g>
<!-- 2 -->
<g id="node2" class="node">
<title>2</title>
<ellipse fill="none" stroke="black" cx="200" cy="-128" rx="18" ry="18"/>
<text text-anchor="middle" x="200" y="-124.3" font-family="Times,serif" font-size="14.00">2</text>
</g>
<!-- 0&#45;&gt;2 -->
<g id="edge1" class="edge">
<title>0&#45;&gt;2</title>
<path fill="none" stroke="black" d="M34.04,-85.93C40.12,-89.34 47.27,-93.09 54,-96 93.09,-112.89 103.09,-118.47 145,-126 153.57,-127.54 163.02,-128.23 171.59,-128.47"/>
<polygon fill="black" stroke="black" points="171.81,-131.98 181.84,-128.59 171.88,-124.98 171.81,-131.98"/>
<text text-anchor="middle" x="109" y="-125.8" font-family="Times,serif" font-size="14.00">8</text>
</g>
<!-- 3 -->
<g id="node3" class="node">
<title>3</title>
<ellipse fill="none" stroke="black" cx="109" cy="-77" rx="18" ry="18"/>
<text text-anchor="middle" x="109" y="-73.3" font-family="Times,serif" font-size="14.00">3</text>
</g>
<!-- 0&#45;&gt;3 -->
<g id="edge2" class="edge">
<title>0&#45;&gt;3</title>
<path fill="none" stroke="black" d="M36.16,-77C48.72,-77 66.02,-77 80.5,-77"/>
<polygon fill="black" stroke="black" points="80.89,-80.5 90.89,-77 80.89,-73.5 80.89,-80.5"/>
<text text-anchor="middle" x="63.5" y="-80.8" font-family="Times,serif" font-size="14.00">10</text>
</g>
<!-- 1 -->
<g id="node4" class="node">
<title>1</title>
<ellipse fill="none" stroke="black" cx="200" cy="-18" rx="18" ry="18"/>
<text text-anchor="middle" x="200" y="-14.3" font-family="Times,serif" font-size="14.00">1</text>
</g>
<!-- 0&#45;&gt;1 -->
<g id="edge3" class="edge">
<title>0&#45;&gt;1</title>
<path fill="none" stroke="black" d="M32.84,-66.8C46.8,-57.05 69.32,-42.72 91,-35 117.43,-25.59 149.34,-21.38 171.6,-19.5"/>
<polygon fill="black" stroke="black" points="171.97,-22.98 181.68,-18.75 171.45,-16 171.97,-22.98"/>
<text text-anchor="middle" x="109" y="-38.8" font-family="Times,serif" font-size="14.00">7</text>
</g>
<!-- 4 -->
<g id="node5" class="node">
<title>4</title>
<ellipse fill="none" stroke="black" cx="291" cy="-71" rx="18" ry="18"/>
<text text-anchor="middle" x="291" y="-67.3" font-family="Times,serif" font-size="14.00">4</text>
</g>
<!-- 2&#45;&gt;4 -->
<g id="edge4" class="edge">
<title>2&#45;&gt;4</title>
<path fill="none" stroke="black" d="M215.7,-118.59C229.48,-109.76 250.33,-96.41 266.43,-86.09"/>
<polygon fill="black" stroke="black" points="268.75,-88.77 275.28,-80.43 264.97,-82.87 268.75,-88.77"/>
<text text-anchor="middle" x="245.5" y="-107.8" font-family="Times,serif" font-size="14.00">12</text>
</g>
<!-- 3&#45;&gt;2 -->
<g id="edge6" class="edge">
<title>3&#45;&gt;2</title>
<path fill="none" stroke="black" d="M125.1,-85.65C138.86,-93.54 159.42,-105.32 175.36,-114.45"/>
<polygon fill="black" stroke="black" points="173.71,-117.54 184.13,-119.48 177.19,-111.47 173.71,-117.54"/>
<text text-anchor="middle" x="154.5" y="-110.8" font-family="Times,serif" font-size="14.00">2</text>
</g>
<!-- 3&#45;&gt;1 -->
<g id="edge7" class="edge">
<title>3&#45;&gt;1</title>
<path fill="none" stroke="black" d="M122.84,-65.38C129.28,-59.83 137.31,-53.25 145,-48 154.3,-41.65 165.05,-35.46 174.5,-30.37"/>
<polygon fill="black" stroke="black" points="176.2,-33.43 183.42,-25.68 172.94,-27.24 176.2,-33.43"/>
<text text-anchor="middle" x="154.5" y="-51.8" font-family="Times,serif" font-size="14.00">11</text>
</g>
<!-- 3&#45;&gt;4 -->
<g id="edge5" class="edge">
<title>3&#45;&gt;4</title>
<path fill="none" stroke="black" d="M127.26,-76.42C158.57,-75.38 224.98,-73.17 262.57,-71.91"/>
<polygon fill="black" stroke="black" points="262.92,-75.4 272.79,-71.57 262.68,-68.41 262.92,-75.4"/>
<text text-anchor="middle" x="200" y="-77.8" font-family="Times,serif" font-size="14.00">5</text>
</g>
<!-- 1&#45;&gt;4 -->
<g id="edge8" class="edge">
<title>1&#45;&gt;4</title>
<path fill="none" stroke="black" d="M216.3,-26.11C227.21,-31.98 242.15,-40.23 255,-48 258.96,-50.39 263.11,-53.02 267.11,-55.61"/>
<polygon fill="black" stroke="black" points="265.23,-58.56 275.51,-61.13 269.08,-52.71 265.23,-58.56"/>
<text text-anchor="middle" x="245.5" y="-51.8" font-family="Times,serif" font-size="14.00">1</text>
</g>
<!-- 5 -->
<g id="node6" class="node">
<title>5</title>
<ellipse fill="none" stroke="black" cx="382" cy="-30" rx="18" ry="18"/>
<text text-anchor="middle" x="382" y="-26.3" font-family="Times,serif" font-size="14.00">5</text>
</g>
<!-- 1&#45;&gt;5 -->
<g id="edge9" class="edge">
<title>1&#45;&gt;5</title>
<path fill="none" stroke="black" d="M218.26,-19.15C249.57,-21.24 315.98,-25.67 353.57,-28.17"/>
<polygon fill="black" stroke="black" points="353.58,-31.68 363.79,-28.85 354.05,-24.7 353.58,-31.68"/>
<text text-anchor="middle" x="291" y="-29.8" font-family="Times,serif" font-size="14.00">21</text>
</g>
<!-- 4&#45;&gt;5 -->
<g id="edge10" class="edge">
<title>4&#45;&gt;5</title>
<path fill="none" stroke="black" d="M307.91,-63.67C321.2,-57.55 340.39,-48.71 355.77,-41.62"/>
<polygon fill="black" stroke="black" points="357.61,-44.63 365.23,-37.27 354.68,-38.27 357.61,-44.63"/>
<text text-anchor="middle" x="336.5" y="-57.8" font-family="Times,serif" font-size="14.00">14</text>
</g>
</g>
</svg>
